<mxfile host="65bd71144e">
    <diagram id="eSBy3AT5Ji7XITXJ-LRb" name="Page-1">
        <mxGraphModel dx="1271" dy="1352" grid="0" gridSize="10" guides="1" tooltips="1" connect="1" arrows="1" fold="1" page="0" pageScale="1" pageWidth="827" pageHeight="1169" background="#ffffff" math="0" shadow="0">
            <root>
                <mxCell id="0"/>
                <mxCell id="1" parent="0"/>
                <mxCell id="7" value=" PATIENT" style="swimlane;fontStyle=1;childLayout=stackLayout;horizontal=1;startSize=26;fillColor=#FFFFCC;horizontalStack=0;resizeParent=1;resizeParentMax=0;resizeLast=0;collapsible=0;marginBottom=0;strokeColor=#1A1A1A;fontColor=#000000;strokeWidth=2;perimeterSpacing=0;swimlaneHead=1;swimlaneBody=1;noLabel=0;portConstraintRotation=0;connectable=1;allowArrows=1;snapToPoint=0;fixDash=0;container=0;backgroundOutline=0;align=left;expand=1;" vertex="1" parent="1">
                    <mxGeometry x="-68" y="-45" width="256" height="182" as="geometry">
                        <mxRectangle x="96" y="225" width="95" height="26" as="alternateBounds"/>
                    </mxGeometry>
                </mxCell>
                <mxCell id="8" value="- ID : INT" style="text;strokeColor=none;fillColor=#E6E6E6;align=left;verticalAlign=top;spacingLeft=4;spacingRight=4;overflow=hidden;rotatable=0;points=[[0,0.5],[1,0.5]];portConstraint=eastwest;fontColor=#1A1A1A;fontStyle=4" vertex="1" parent="7">
                    <mxGeometry y="26" width="256" height="26" as="geometry"/>
                </mxCell>
                <mxCell id="9" value="- IPP : INT" style="text;strokeColor=none;fillColor=#E6E6E6;align=left;verticalAlign=top;spacingLeft=4;spacingRight=4;overflow=hidden;rotatable=0;points=[[0,0.5],[1,0.5]];portConstraint=eastwest;fontColor=#1A1A1A;" vertex="1" parent="7">
                    <mxGeometry y="52" width="256" height="26" as="geometry"/>
                </mxCell>
                <mxCell id="10" value="- NAME : VARCHAR" style="text;strokeColor=none;fillColor=#E6E6E6;align=left;verticalAlign=top;spacingLeft=4;spacingRight=4;overflow=hidden;rotatable=0;points=[[0,0.5],[1,0.5]];portConstraint=eastwest;fontColor=#1A1A1A;strokeWidth=1;" vertex="1" parent="7">
                    <mxGeometry y="78" width="256" height="26" as="geometry"/>
                </mxCell>
                <mxCell id="11" value="- FORNAME : VARCHAR" style="text;strokeColor=none;fillColor=#E6E6E6;align=left;verticalAlign=top;spacingLeft=4;spacingRight=4;overflow=hidden;rotatable=0;points=[[0,0.5],[1,0.5]];portConstraint=eastwest;fontColor=#1A1A1A;strokeWidth=1;" vertex="1" parent="7">
                    <mxGeometry y="104" width="256" height="26" as="geometry"/>
                </mxCell>
                <mxCell id="12" value="- BIRTHDATE : DATETIME" style="text;strokeColor=none;fillColor=#E6E6E6;align=left;verticalAlign=top;spacingLeft=4;spacingRight=4;overflow=hidden;rotatable=0;points=[[0,0.5],[1,0.5]];portConstraint=eastwest;fontColor=#1A1A1A;strokeWidth=1;" vertex="1" parent="7">
                    <mxGeometry y="130" width="256" height="26" as="geometry"/>
                </mxCell>
                <mxCell id="13" value="- GENDER : ENUM('M', 'F', 'O')" style="text;strokeColor=none;fillColor=#E6E6E6;align=left;verticalAlign=top;spacingLeft=4;spacingRight=4;overflow=hidden;rotatable=0;points=[[0,0.5],[1,0.5]];portConstraint=eastwest;fontColor=#1A1A1A;strokeWidth=1;" vertex="1" parent="7">
                    <mxGeometry y="156" width="256" height="26" as="geometry"/>
                </mxCell>
                <mxCell id="70" style="edgeStyle=none;html=1;fontColor=#333333;endArrow=none;endFill=0;strokeColor=#000000;strokeWidth=2;" edge="1" parent="1" source="18" target="7">
                    <mxGeometry relative="1" as="geometry"/>
                </mxCell>
                <mxCell id="18" value=" PAIN_VALUE" style="swimlane;fontStyle=1;childLayout=stackLayout;horizontal=1;startSize=26;fillColor=#FFFFCC;horizontalStack=0;resizeParent=1;resizeParentMax=0;resizeLast=0;collapsible=0;marginBottom=0;strokeColor=#1A1A1A;fontColor=#000000;strokeWidth=2;perimeterSpacing=0;swimlaneHead=1;swimlaneBody=1;noLabel=0;portConstraintRotation=0;connectable=1;allowArrows=1;snapToPoint=0;fixDash=0;container=0;backgroundOutline=0;align=left;expand=1;" vertex="1" parent="1">
                    <mxGeometry x="-38" y="210" width="196" height="130" as="geometry">
                        <mxRectangle x="96" y="225" width="95" height="26" as="alternateBounds"/>
                    </mxGeometry>
                </mxCell>
                <mxCell id="59" value="- ID : INT" style="text;strokeColor=none;fillColor=#E6E6E6;align=left;verticalAlign=top;spacingLeft=4;spacingRight=4;overflow=hidden;rotatable=0;points=[[0,0.5],[1,0.5]];portConstraint=eastwest;fontColor=#1A1A1A;fontStyle=4" vertex="1" parent="18">
                    <mxGeometry y="26" width="196" height="26" as="geometry"/>
                </mxCell>
                <mxCell id="20" value="- ID_PATIENT : INT" style="text;strokeColor=none;fillColor=#E6E6E6;align=left;verticalAlign=top;spacingLeft=4;spacingRight=4;overflow=hidden;rotatable=0;points=[[0,0.5],[1,0.5]];portConstraint=eastwest;fontColor=#1A1A1A;" vertex="1" parent="18">
                    <mxGeometry y="52" width="196" height="26" as="geometry"/>
                </mxCell>
                <mxCell id="21" value="- PAIN_DATETIME : DATETIME" style="text;strokeColor=none;fillColor=#E6E6E6;align=left;verticalAlign=top;spacingLeft=4;spacingRight=4;overflow=hidden;rotatable=0;points=[[0,0.5],[1,0.5]];portConstraint=eastwest;fontColor=#1A1A1A;strokeWidth=1;" vertex="1" parent="18">
                    <mxGeometry y="78" width="196" height="26" as="geometry"/>
                </mxCell>
                <mxCell id="27" value="- PAIN_VALUE : VARCHAR" style="text;strokeColor=none;fillColor=#E6E6E6;align=left;verticalAlign=top;spacingLeft=4;spacingRight=4;overflow=hidden;rotatable=0;points=[[0,0.5],[1,0.5]];portConstraint=eastwest;fontColor=#1A1A1A;strokeWidth=1;" vertex="1" parent="18">
                    <mxGeometry y="104" width="196" height="26" as="geometry"/>
                </mxCell>
                <mxCell id="72" style="edgeStyle=none;html=1;strokeColor=#000000;strokeWidth=2;fontColor=#333333;endArrow=none;endFill=0;" edge="1" parent="1" source="29" target="38">
                    <mxGeometry relative="1" as="geometry"/>
                </mxCell>
                <mxCell id="29" value="BED" style="swimlane;fontStyle=1;childLayout=stackLayout;horizontal=1;startSize=26;fillColor=#FFFFCC;horizontalStack=0;resizeParent=1;resizeParentMax=0;resizeLast=0;collapsible=0;marginBottom=0;strokeColor=#1A1A1A;fontColor=#000000;strokeWidth=2;perimeterSpacing=0;swimlaneHead=1;swimlaneBody=1;noLabel=0;portConstraintRotation=0;connectable=1;allowArrows=1;snapToPoint=0;fixDash=0;container=0;backgroundOutline=0;align=left;expand=1;" vertex="1" parent="1">
                    <mxGeometry x="272" y="-32" width="220" height="156" as="geometry">
                        <mxRectangle x="96" y="225" width="95" height="26" as="alternateBounds"/>
                    </mxGeometry>
                </mxCell>
                <mxCell id="30" value="- ID : INT" style="text;strokeColor=none;fillColor=#E6E6E6;align=left;verticalAlign=top;spacingLeft=4;spacingRight=4;overflow=hidden;rotatable=0;points=[[0,0.5],[1,0.5]];portConstraint=eastwest;fontColor=#1A1A1A;fontStyle=4" vertex="1" parent="29">
                    <mxGeometry y="26" width="220" height="26" as="geometry"/>
                </mxCell>
                <mxCell id="31" value="- ID_WARD : INT" style="text;strokeColor=none;fillColor=#E6E6E6;align=left;verticalAlign=top;spacingLeft=4;spacingRight=4;overflow=hidden;rotatable=0;points=[[0,0.5],[1,0.5]];portConstraint=eastwest;fontColor=#1A1A1A;" vertex="1" parent="29">
                    <mxGeometry y="52" width="220" height="26" as="geometry"/>
                </mxCell>
                <mxCell id="32" value="- ID_PATIENT : INT" style="text;strokeColor=none;fillColor=#E6E6E6;align=left;verticalAlign=top;spacingLeft=4;spacingRight=4;overflow=hidden;rotatable=0;points=[[0,0.5],[1,0.5]];portConstraint=eastwest;fontColor=#1A1A1A;strokeWidth=1;" vertex="1" parent="29">
                    <mxGeometry y="78" width="220" height="26" as="geometry"/>
                </mxCell>
                <mxCell id="33" value="- BED_CODE : VARCHAR" style="text;strokeColor=none;fillColor=#E6E6E6;align=left;verticalAlign=top;spacingLeft=4;spacingRight=4;overflow=hidden;rotatable=0;points=[[0,0.5],[1,0.5]];portConstraint=eastwest;fontColor=#1A1A1A;strokeWidth=1;" vertex="1" parent="29">
                    <mxGeometry y="104" width="220" height="26" as="geometry"/>
                </mxCell>
                <mxCell id="34" value="- BED_LABEL : VARCHAR" style="text;strokeColor=none;fillColor=#E6E6E6;align=left;verticalAlign=top;spacingLeft=4;spacingRight=4;overflow=hidden;rotatable=0;points=[[0,0.5],[1,0.5]];portConstraint=eastwest;fontColor=#1A1A1A;strokeWidth=1;" vertex="1" parent="29">
                    <mxGeometry y="130" width="220" height="26" as="geometry"/>
                </mxCell>
                <mxCell id="38" value=" WARD" style="swimlane;fontStyle=1;childLayout=stackLayout;horizontal=1;startSize=26;fillColor=#FFFFCC;horizontalStack=0;resizeParent=1;resizeParentMax=0;resizeLast=0;collapsible=0;marginBottom=0;strokeColor=#1A1A1A;fontColor=#000000;strokeWidth=2;perimeterSpacing=0;swimlaneHead=1;swimlaneBody=1;noLabel=0;portConstraintRotation=0;connectable=1;allowArrows=1;snapToPoint=0;fixDash=0;container=0;backgroundOutline=0;align=left;expand=1;" vertex="1" parent="1">
                    <mxGeometry x="272" y="223" width="220" height="104" as="geometry">
                        <mxRectangle x="96" y="225" width="95" height="26" as="alternateBounds"/>
                    </mxGeometry>
                </mxCell>
                <mxCell id="60" value="- ID : INT" style="text;strokeColor=none;fillColor=#E6E6E6;align=left;verticalAlign=top;spacingLeft=4;spacingRight=4;overflow=hidden;rotatable=0;points=[[0,0.5],[1,0.5]];portConstraint=eastwest;fontColor=#1A1A1A;fontStyle=4" vertex="1" parent="38">
                    <mxGeometry y="26" width="220" height="26" as="geometry"/>
                </mxCell>
                <mxCell id="41" value="- WARD_CODE : VARCHAR" style="text;strokeColor=none;fillColor=#E6E6E6;align=left;verticalAlign=top;spacingLeft=4;spacingRight=4;overflow=hidden;rotatable=0;points=[[0,0.5],[1,0.5]];portConstraint=eastwest;fontColor=#1A1A1A;" vertex="1" parent="38">
                    <mxGeometry y="52" width="220" height="26" as="geometry"/>
                </mxCell>
                <mxCell id="42" value="- WARD_LABEL : VARCHAR" style="text;strokeColor=none;fillColor=#E6E6E6;align=left;verticalAlign=top;spacingLeft=4;spacingRight=4;overflow=hidden;rotatable=0;points=[[0,0.5],[1,0.5]];portConstraint=eastwest;fontColor=#1A1A1A;strokeWidth=1;" vertex="1" parent="38">
                    <mxGeometry y="78" width="220" height="26" as="geometry"/>
                </mxCell>
                <mxCell id="61" value=" USER" style="swimlane;fontStyle=1;childLayout=stackLayout;horizontal=1;startSize=26;fillColor=#FFFFCC;horizontalStack=0;resizeParent=1;resizeParentMax=0;resizeLast=0;collapsible=0;marginBottom=0;strokeColor=#1A1A1A;fontColor=#000000;strokeWidth=2;perimeterSpacing=0;swimlaneHead=1;swimlaneBody=1;noLabel=0;portConstraintRotation=0;connectable=1;allowArrows=1;snapToPoint=0;fixDash=0;container=0;backgroundOutline=0;align=left;expand=1;" vertex="1" parent="1">
                    <mxGeometry x="93" y="391" width="256" height="208" as="geometry">
                        <mxRectangle x="96" y="225" width="95" height="26" as="alternateBounds"/>
                    </mxGeometry>
                </mxCell>
                <mxCell id="62" value="- ID : INT" style="text;strokeColor=none;fillColor=#E6E6E6;align=left;verticalAlign=top;spacingLeft=4;spacingRight=4;overflow=hidden;rotatable=0;points=[[0,0.5],[1,0.5]];portConstraint=eastwest;fontColor=#1A1A1A;fontStyle=4" vertex="1" parent="61">
                    <mxGeometry y="26" width="256" height="26" as="geometry"/>
                </mxCell>
                <mxCell id="64" value="- NAME : VARCHAR" style="text;strokeColor=none;fillColor=#E6E6E6;align=left;verticalAlign=top;spacingLeft=4;spacingRight=4;overflow=hidden;rotatable=0;points=[[0,0.5],[1,0.5]];portConstraint=eastwest;fontColor=#1A1A1A;strokeWidth=1;" vertex="1" parent="61">
                    <mxGeometry y="52" width="256" height="26" as="geometry"/>
                </mxCell>
                <mxCell id="65" value="- FORNAME : VARCHAR" style="text;strokeColor=none;fillColor=#E6E6E6;align=left;verticalAlign=top;spacingLeft=4;spacingRight=4;overflow=hidden;rotatable=0;points=[[0,0.5],[1,0.5]];portConstraint=eastwest;fontColor=#1A1A1A;strokeWidth=1;" vertex="1" parent="61">
                    <mxGeometry y="78" width="256" height="26" as="geometry"/>
                </mxCell>
                <mxCell id="68" value="- OCCUPATION : VARCHAR" style="text;strokeColor=none;fillColor=#E6E6E6;align=left;verticalAlign=top;spacingLeft=4;spacingRight=4;overflow=hidden;rotatable=0;points=[[0,0.5],[1,0.5]];portConstraint=eastwest;fontColor=#1A1A1A;strokeWidth=1;" vertex="1" parent="61">
                    <mxGeometry y="104" width="256" height="26" as="geometry"/>
                </mxCell>
                <mxCell id="66" value="- USERNAME : VARCHAR" style="text;strokeColor=none;fillColor=#E6E6E6;align=left;verticalAlign=top;spacingLeft=4;spacingRight=4;overflow=hidden;rotatable=0;points=[[0,0.5],[1,0.5]];portConstraint=eastwest;fontColor=#1A1A1A;strokeWidth=1;" vertex="1" parent="61">
                    <mxGeometry y="130" width="256" height="26" as="geometry"/>
                </mxCell>
                <mxCell id="69" value="- PASSWORD_HASH : VARCHAR" style="text;strokeColor=none;fillColor=#E6E6E6;align=left;verticalAlign=top;spacingLeft=4;spacingRight=4;overflow=hidden;rotatable=0;points=[[0,0.5],[1,0.5]];portConstraint=eastwest;fontColor=#1A1A1A;strokeWidth=1;" vertex="1" parent="61">
                    <mxGeometry y="156" width="256" height="26" as="geometry"/>
                </mxCell>
                <mxCell id="67" value="- SALT : VARCHAR" style="text;strokeColor=none;fillColor=#E6E6E6;align=left;verticalAlign=top;spacingLeft=4;spacingRight=4;overflow=hidden;rotatable=0;points=[[0,0.5],[1,0.5]];portConstraint=eastwest;fontColor=#1A1A1A;strokeWidth=1;" vertex="1" parent="61">
                    <mxGeometry y="182" width="256" height="26" as="geometry"/>
                </mxCell>
                <mxCell id="71" style="edgeStyle=none;html=1;strokeColor=#000000;strokeWidth=2;fontColor=#333333;endArrow=none;endFill=0;" edge="1" parent="1" source="10" target="29">
                    <mxGeometry relative="1" as="geometry"/>
                </mxCell>
                <mxCell id="73" value="1..1" style="text;html=1;strokeColor=none;fillColor=none;align=center;verticalAlign=middle;whiteSpace=wrap;rounded=0;strokeWidth=1;fontColor=#1A1A1A;" vertex="1" parent="1">
                    <mxGeometry x="46" y="137" width="60" height="30" as="geometry"/>
                </mxCell>
                <mxCell id="74" value="0..n" style="text;html=1;strokeColor=none;fillColor=none;align=center;verticalAlign=middle;whiteSpace=wrap;rounded=0;strokeWidth=1;fontColor=#1A1A1A;" vertex="1" parent="1">
                    <mxGeometry x="46" y="182" width="60" height="30" as="geometry"/>
                </mxCell>
                <mxCell id="75" value="0..1" style="text;html=1;strokeColor=none;fillColor=none;align=center;verticalAlign=middle;whiteSpace=wrap;rounded=0;strokeWidth=1;fontColor=#1A1A1A;" vertex="1" parent="1">
                    <mxGeometry x="171" y="44" width="60" height="30" as="geometry"/>
                </mxCell>
                <mxCell id="76" value="0..1" style="text;html=1;strokeColor=none;fillColor=none;align=center;verticalAlign=middle;whiteSpace=wrap;rounded=0;strokeWidth=1;fontColor=#1A1A1A;" vertex="1" parent="1">
                    <mxGeometry x="226" y="17" width="60" height="30" as="geometry"/>
                </mxCell>
                <mxCell id="77" value="0..n" style="text;html=1;strokeColor=none;fillColor=none;align=center;verticalAlign=middle;whiteSpace=wrap;rounded=0;strokeWidth=1;fontColor=#1A1A1A;" vertex="1" parent="1">
                    <mxGeometry x="329" y="121" width="60" height="30" as="geometry"/>
                </mxCell>
                <mxCell id="78" value="1..1" style="text;html=1;strokeColor=none;fillColor=none;align=center;verticalAlign=middle;whiteSpace=wrap;rounded=0;strokeWidth=1;fontColor=#1A1A1A;" vertex="1" parent="1">
                    <mxGeometry x="336" y="193" width="60" height="30" as="geometry"/>
                </mxCell>
            </root>
        </mxGraphModel>
    </diagram>
</mxfile>